<svg xmlns="http://www.w3.org/2000/svg" viewBox="0 0 370 350"><defs><style>.cls-1{isolation:isolate;}.cls-2,.cls-3{fill:#f1eec5;}.cls-12,.cls-2{opacity:0.2;}.cls-4{fill:#0e4877;}.cls-5{fill:#2d72b9;}.cls-6{fill:#84d3f5;}.cls-16,.cls-7{fill:#010101;}.cls-7{opacity:0.1;}.cls-12,.cls-16,.cls-7{mix-blend-mode:multiply;}.cls-8{fill:#2aaae2;}.cls-9{fill:#e73e32;}.cls-10{fill:#fff;}.cls-11{fill:#1272b9;}.cls-12{fill:#3b3c3e;}.cls-13,.cls-17,.cls-22,.cls-23,.cls-24{fill:none;stroke-miterlimit:10;}.cls-13,.cls-17,.cls-22,.cls-23{stroke:#0e4877;}.cls-13{stroke-width:0.45px;}.cls-14{fill:#e83d32;}.cls-15{fill:#2287c9;}.cls-16{opacity:0.24;}.cls-17{stroke-width:2.18px;}.cls-18{fill:#af1f23;}.cls-19{fill:#ed2224;}.cls-20{fill:#046937;}.cls-21{fill:#8dc641;}.cls-22{stroke-width:0.73px;}.cls-23{stroke-width:1.58px;}.cls-24{stroke:#2287c9;stroke-linecap:round;stroke-width:1.45px;}</style></defs><title>smaArtboard 1 copy 34</title><g class="cls-1"><g id="Layer_1" data-name="Layer 1"><circle class="cls-2" cx="185" cy="175" r="166.46"/><circle class="cls-3" cx="185" cy="175" r="133.88"/><polygon class="cls-4" points="174.19 269.83 171.4 308.27 176.06 308.58 178.59 269.83 174.19 269.83"/><polygon class="cls-4" points="189.84 269.83 188.03 308.81 192.57 308.64 194.24 269.83 189.84 269.83"/><polygon class="cls-5" points="203.97 277.14 213.68 215.92 175.79 209.85 166.63 273.8 203.97 277.14"/><path class="cls-6" d="M182.89,241.55a2.78,2.78,0,1,1,3-2.52A2.78,2.78,0,0,1,182.89,241.55Zm.38-4.3a1.54,1.54,0,1,0,1.39,1.67A1.54,1.54,0,0,0,183.27,237.25Z"/><path class="cls-6" d="M181.12,251.64a2.78,2.78,0,1,1,3-2.52A2.78,2.78,0,0,1,181.12,251.64Zm.38-4.3A1.54,1.54,0,1,0,182.9,249,1.54,1.54,0,0,0,181.51,247.34Z"/><polygon class="cls-6" points="178.63 219.31 180.18 229.09 185.76 224.28 190.31 231.87 194.63 223.2 178.63 219.31"/><path class="cls-7" d="M178.18,274.83c.09-.42.18-.85.27-1.27,1.49-6.82,5.46-42.53,7.32-49.28,1.13-4.11,2.39-8.19,3.81-12.23l-13.78-2.21-9.16,63.95Z"/><path class="cls-8" d="M185.74,129.08l.41,0c-.64-.14-1.52-.29-2.74-.44.65.08,1.31.31,2,.43h.08l-.05-.09.33.13Z"/><path class="cls-5" d="M164,217a121.24,121.24,0,0,0,36.28-7.52l-2.11-5.77c-59.27,21.66-95.22-12.11-95.57-12.45l-4.27,4.42c.4.38,9.92,9.45,27.31,15.71A99.83,99.83,0,0,0,164,217Z"/><path class="cls-5" d="M234.56,235.67a121.24,121.24,0,0,1-32.88-17.09l3.6-5c51.16,36.94,94.93,14.2,95.36,14l2.91,5.41c-.49.26-12.12,6.4-30.55,7.7A99.83,99.83,0,0,1,234.56,235.67Z"/><path class="cls-9" d="M300.9,233.94c2,3.17,5.44,8.62,9.74,8.39,8.29-.43-1.08-10.72-3.64-13.81a99.31,99.31,0,0,0,12.6,8.7,29.64,29.64,0,0,0,7.53,3.3c1.94.45,6.68,1,7.3-1.77s-4.11-5.71-6-6.92a27.27,27.27,0,0,0-19-3.61c4.77-.91,9.51-1.93,14.19-3.23a70.36,70.36,0,0,0,8.76-2.95c2.19-.93,5.5-2.19,6.51-4.61,2.83-6.81-12.59-3-15-2.43-9.47,2.3-15.91,6.22-23.93,11.61l-.57.38c-2.68-4-10.85-16.93-17-14-7.82,4.09,10.24,17,15.53,17.27Z"/><path class="cls-7" d="M174.18,220s19.78,16.7,36.34,13.44l2.07-5.31Z"/><polygon class="cls-10" points="205.07 215.27 249.04 208.99 270.97 162.82 277.7 148.06 301.25 123.4 294.4 113.94 266.36 111.96 233.56 117.31 205.06 78.84 190.61 59.38 180.82 99.57 154.43 125.5 151.14 158.5 170.65 199.11 205.07 215.27"/><path class="cls-9" d="M134.26,133.09c-16.38,16.11-4.63,28.07-4.63,28.07-.24-1.25,1.73-6.7,1.73-6.7-1.64,16.68,7.34,32.8,7.34,32.8-.19-2.12,1.69-12,1.69-12-1.05,11.33,8,23.56,8,23.56-.92-1.91.42-11.77.42-11.77a42.61,42.61,0,0,0,8.83,19.52,22.46,22.46,0,0,0,3.68,3.62l1.54,1.16h0l-.12,0a40.42,40.42,0,0,1,7.63,5.35c-8.86-7.89-5.78-4,.48-1.5,4.59,1.84,7.37,3.85,11.87,4.15,9.33.63,18.53,1.53,27.83,2.68,10.16,1.26,16.65.4,26.29,0l5.82.64c4-1.53,7.92-2.88,12-4,.67-.19,1.35-.31,2-.45a103.53,103.53,0,0,0,7.53-9.6c.16,2.51-1.54,6-3.48,9a29.38,29.38,0,0,1,5,.15l.14-.13a11,11,0,0,1,1.94-1.25l-.66.12c6.07-8,8.77-19,8.77-19,2,4.58-2.39,15.7-2.39,15.7,16.33-14,4.61-45.79,4.61-45.79,4.27,4.78,8.39,20.06,8.39,20.06,1.37-14.51-10.4-32-10.4-32,27.61-22.68,30.35-35.36,30.35-35.36-20.55-16.73-52.07-10-52.07-10a38.4,38.4,0,0,0-25-20.81c5.62,3.28,9.06,10.41,9.06,10.41a124.89,124.89,0,0,0-21.61-12.29c-.52-5-4.22-21.77-30.4-29.53,0,0-10.56,17.81-9.35,30.33-9.35,1.06-11.08,3.94-11.08,3.94l8.92.76L164.5,110.81a35.29,35.29,0,0,0-20.21,4.73c2.28-.54,8.41,2,8.41,2-18.48,3.62-25.78,17.35-25.78,17.35A9.63,9.63,0,0,1,134.26,133.09Zm130.11-12.74s20.82-5.42,31.15,3.19c0,0-10,14.92-21,18.89C274.53,142.44,271.3,129.37,264.37,120.36ZM186.67,134c6.49-12.6,24.32-26.48,34.74-21.12s9.49,27.94,3,40.55-20,15.83-30.43,10.47S180.19,146.63,186.67,134Zm4.11-66.52c14.12,6.06,18.94,20,16.45,20-5.77.1-22.44,5.7-22.44,5.7C180.74,84.11,190.79,67.51,190.79,67.51Z"/><path class="cls-9" d="M276.42,198.3s-8.69,28.25-26.3,36c0,0,8.15-10.3,10.11-15.63,0,0-12.71,20.36-47.22,15.86a40.94,40.94,0,0,0,18.85-7.35s-48.77,8.84-73.6-19.91L223,210.23s35.12-17.61,35.79-17.48S276.42,198.3,276.42,198.3Z"/><path class="cls-10" d="M211.68,200.49c-14.48,1.9-29.94-3.4-46-15.79a.77.77,0,0,1,.94-1.22c17.18,13.24,33.57,18.22,48.7,14.8,23.55-5.31,36.07-29.44,36.19-29.68a.77.77,0,0,1,1.38.7c-.13.25-13,25-37.23,30.49Q213.67,200.23,211.68,200.49Z"/><path class="cls-10" d="M260.36,174s1.8-21.87-15.24-10.1c0,0,14.08-7.51,14.43,13.36"/><path class="cls-10" d="M175.93,150c7.57,6.63-14.81,5.83-14.81,5.83s-2.48-7.78-1.88-13.71S168.35,143.37,175.93,150Z"/><ellipse class="cls-9" cx="211.68" cy="148.4" rx="7.5" ry="3.19" transform="translate(8.62 308.38) rotate(-73.27)"/><ellipse class="cls-10" cx="176.92" cy="136.94" rx="7.5" ry="3.19" transform="translate(-5.16 266.95) rotate(-73.27)"/><path class="cls-4" d="M293.89,260l-.77,3.69a2.28,2.28,0,0,0,1.8,2.7h0a2.28,2.28,0,0,0,2.49-1.25l2-4.08Z"/><path class="cls-11" d="M344.38,163.66c2-11.56-4.68-22.7-15.5-25.39-10.14-2.52-20.53,3.23-24.82,13.14Z"/><path class="cls-11" d="M302.08,159.87c-.54,10.51,5.88,20.1,15.81,22.57,9.25,2.3,18.7-2.28,23.55-10.62Z"/><polygon class="cls-11" points="302.32 263.17 290.18 260.2 303.38 196.6 322.55 201.37 302.32 263.17"/><polygon class="cls-12" points="302.19 263.45 300.04 262.65 314.7 199.41 322.55 201.37 302.19 263.45"/><path class="cls-12" d="M344.38,163.66a22.78,22.78,0,0,0-7.3-21.15,53,53,0,0,1-2.83,18.07Z"/><path class="cls-12" d="M330.45,168.49c-4.95,7.82-10.86,10.57-10.86,10.57s2.31,1.79,5.09,3.87a22.15,22.15,0,0,0,16.76-11.11Z"/><polyline class="cls-13" points="303.14 208.12 298.2 236.07 307 239.25 317.02 209.1"/><polygon class="cls-13" points="297.45 238.92 306.22 241.72 304.99 245.91 296.23 243.11 297.45 238.92"/><line class="cls-13" x1="296.44" y1="246.45" x2="293.8" y2="257.83"/><line class="cls-13" x1="297.25" y1="259.1" x2="299.88" y2="247.73"/><line class="cls-13" x1="303.3" y1="248.63" x2="300.66" y2="260"/><rect class="cls-14" x="295.05" y="175.73" width="39.16" height="35.63" transform="translate(56.05 -70.25) rotate(13.97)"/><path class="cls-10" d="M326,202.8l.3-17.89a2.63,2.63,0,0,0-2.59-2.67l-3-.05q.47.2.93.43a16,16,0,0,1,3.35,2.24l-2.74,4a8,8,0,0,0-4.79-2.88q-3-.74-3.57,1.62a2.2,2.2,0,0,0,.56,1.93,21,21,0,0,0,3.67,3.06,13.41,13.41,0,0,1,3,2.84,7.25,7.25,0,0,1,.82,1.35,7,7,0,0,1,.33,4.69,6.75,6.75,0,0,1-2.4,3.85l3.41.06A2.63,2.63,0,0,0,326,202.8Z"/><path class="cls-10" d="M315.89,197.87a15.64,15.64,0,0,0-3.37-3.06,16.21,16.21,0,0,1-2.57-2.32,7,7,0,0,1-1.9-6.56,6.06,6.06,0,0,1,2.19-3.5,5.83,5.83,0,0,1,.61-.4l-5-.09a2.63,2.63,0,0,0-2.68,2.58l-.3,17.89a2.63,2.63,0,0,0,2.58,2.68l2.05,0-.14-.08a19.21,19.21,0,0,1-3.35-2.55l3.15-4a9.29,9.29,0,0,0,5.25,3.45c2.22.55,3.51,0,3.91-1.54A3,3,0,0,0,315.89,197.87Z"/><rect class="cls-12" x="328.64" y="179.84" width="5.06" height="35.63" transform="translate(57.53 -74.12) rotate(13.97)"/><path class="cls-9" d="M73.76,209.21c-3.62.87-9.93,2.29-12.82-.9-5.59-6.14,8.31-6.86,12.31-7.25a99.31,99.31,0,0,1-15.07-2.69,29.64,29.64,0,0,1-7.67-3c-1.69-1-5.46-4-3.94-6.39s6.93-1.17,9.16-.67a27.27,27.27,0,0,1,16,10.77c-2.75-4-5.4-8.07-7.81-12.28a70.36,70.36,0,0,1-4.15-8.26c-.9-2.2-2.37-5.43-1.38-7.85,2.78-6.83,11.07,6.72,12.37,8.84,5.11,8.3,6.93,15.61,8.83,25.09l.14.67c4.72-1,19.62-4.4,21.89,2,2.68,8.41-19.25,4.88-23.19,1.35Z"/><path class="cls-4" d="M99.62,238.76,79.9,235.84A9.79,9.79,0,0,1,72,224l15.22-56.94,30.4,4.51Z"/><path class="cls-11" d="M94.94,234.14l-19.72-2.93a9.79,9.79,0,0,1-7.94-11.84L82.5,162.43l30.4,4.51Z"/><path class="cls-15" d="M81.74,211.6,70.87,210a5.39,5.39,0,0,1-4.37-6.52l8.38-31.37,16.74,2.48Z"/><path class="cls-4" d="M79.73,207.9l-10.86-1.61a5.39,5.39,0,0,1-4.37-6.52l8.38-31.37,16.74,2.48Z"/><path class="cls-11" d="M165.58,119.19l-22.82-3.38-4.71,31.76,22.82,3.38c5.6.83,11.2-5.61,12.5-14.37S171.18,120,165.58,119.19Z"/><path class="cls-16" d="M140.1,133.77l-2,13.79,22.82,3.38c5.15.76,10.29-4.61,12.09-12.3Z"/><path class="cls-15" d="M54.69,178.46l90.05,13.36s14.62-29.36,11.87-80L66.55,98.45S62.35,107,54.69,178.46Z"/><path class="cls-16" d="M49.65,158.26c-.68,5.82-1.39,12.18-2.14,19.14l97.23,14.42s3.21-6.45,6.34-18.52Z"/><path class="cls-4" d="M90.65,102l23.68,3.51c7.12,27.9,3,55.39-11.87,80L78.78,182C93.69,157.41,97.77,129.92,90.65,102Z"/><rect class="cls-4" x="50.21" y="107.95" width="35.54" height="21.04" rx="3.24" ry="3.24" transform="translate(18.12 -8.69) rotate(8.44)"/><line class="cls-17" x1="113.75" y1="140.54" x2="155.8" y2="146.77"/><line class="cls-17" x1="111.35" y1="156.67" x2="153.41" y2="162.91"/><rect class="cls-15" x="76.98" y="113.23" width="4.35" height="13.06" rx="2.18" ry="2.18" transform="translate(18.43 -10.32) rotate(8.44)"/><circle class="cls-16" cx="129.34" cy="151.09" r="4.58" transform="translate(-39.1 256.86) rotate(-81.56)"/><path class="cls-18" d="M132.16,151.51a4.57,4.57,0,0,0-3.55-5.14v0l-1.95-.29,0,.31a4.57,4.57,0,0,0-1.25,8.43l0,.31,1.95.29v0A4.57,4.57,0,0,0,132.16,151.51Z"/><circle class="cls-19" cx="125.89" cy="150.58" r="4.58" transform="translate(-41.54 253.01) rotate(-81.56)"/><circle class="cls-16" cx="144.67" cy="153.37" r="4.58" transform="translate(-28.26 273.97) rotate(-81.56)"/><path class="cls-20" d="M147.5,153.79a4.57,4.57,0,0,0-3.55-5.14v0l-1.95-.29,0,.31a4.57,4.57,0,0,0-1.25,8.43l0,.31,1.95.29v0A4.57,4.57,0,0,0,147.5,153.79Z"/><circle class="cls-21" cx="141.22" cy="152.85" r="4.58" transform="translate(-30.7 270.12) rotate(-81.56)"/><path class="cls-22" d="M131.1,108a47,47,0,0,1,.21,35.11"/><path class="cls-22" d="M139.73,109.31a47,47,0,0,1,.21,35.11"/><ellipse class="cls-15" cx="34.54" cy="148.3" rx="36.66" ry="21.91" transform="translate(-117.22 160.71) rotate(-81.56)"/><ellipse class="cls-23" cx="43.76" cy="149.67" rx="22.84" ry="16.77" transform="translate(-110.71 170.99) rotate(-81.56)"/><path class="cls-11" d="M74.23,140.34,51.41,137l-4.1,27.62L70.13,168c5.6.83,11.06-4.68,12.19-12.3S79.83,141.17,74.23,140.34Z"/><path class="cls-16" d="M49.09,152.59l-1.78,12L70.13,168c5.15.76,10.17-3.83,11.83-10.5Z"/><ellipse class="cls-4" cx="51.08" cy="150.76" rx="14.25" ry="10.46" transform="translate(-105.54 179.17) rotate(-81.56)"/><path class="cls-11" d="M50.52,114.46v0L40.8,112.2c9.3,4.92,18,21.87,15.43,39.32-2.71,18.28-16.52,32.05-27.4,33l11.19.82c11.61.8,23.05-13.37,25.87-32.38S61.87,117.07,50.52,114.46Z"/><path class="cls-16" d="M15.59,134c10.1-.88,25.83,1.22,40.63,17.5,3-20-4.33-37.7-16.3-39.47C30.29,110.62,20.57,119.91,15.59,134Z"/><ellipse class="cls-10" cx="43.57" cy="141.2" rx="5.35" ry="3.04" transform="translate(-102.5 163.58) rotate(-81.56)"/><line class="cls-24" x1="76.95" y1="186.5" x2="85.56" y2="187.78"/><line class="cls-24" x1="76.7" y1="192.47" x2="85.31" y2="193.74"/><line class="cls-24" x1="76.45" y1="198.43" x2="82.9" y2="199.39"/><path class="cls-5" d="M227.74,84.32s21.66-11,33.92,2.9-5.25,22-5.25,22S233.19,114.71,227.74,84.32Z"/><path class="cls-16" d="M261.65,87.22c-12.25-13.89-33.92-2.9-33.92-2.9a50.49,50.49,0,0,0,1.69,6.82C233.08,87.69,242.95,81.21,261.65,87.22Z"/><path class="cls-6" d="M255.23,118.26s-37.31-10.45-38.65-36.47l11.48-2.45s8.82,26.08,28.34,29.84Z"/><rect class="cls-5" x="217.88" y="83.73" width="10.24" height="0.71" transform="translate(-12.62 48.24) rotate(-12.01)"/><rect class="cls-5" x="219.38" y="87.75" width="10.24" height="0.71" transform="translate(-15.95 69.45) rotate(-16.99)"/><rect class="cls-5" x="221.81" y="91.83" width="10.24" height="0.71" transform="translate(-17.63 105.88) rotate(-25.31)"/><rect class="cls-5" x="224.34" y="95.81" width="10.24" height="0.71" transform="translate(-17.14 129.2) rotate(-30.37)"/><rect class="cls-5" x="228.61" y="99.96" width="9.19" height="0.71" transform="translate(-16.15 147.95) rotate(-34.09)"/><rect class="cls-5" x="233.66" y="103.62" width="7.55" height="0.71" transform="translate(-10.5 179.58) rotate(-40.61)"/><rect class="cls-5" x="237.58" y="106.97" width="6.72" height="0.71" transform="translate(-1.94 210.19) rotate(-46.96)"/><rect class="cls-5" x="242.63" y="109.78" width="6.72" height="0.71" transform="translate(19.37 256.03) rotate(-56.89)"/><rect class="cls-5" x="248.5" y="112.5" width="6.72" height="0.71" transform="matrix(0.3, -0.95, 0.95, 0.3, 68.48, 319.11)"/><ellipse class="cls-12" cx="324.75" cy="148.78" rx="1.51" ry="3.21" transform="translate(64.06 392.99) rotate(-67.75)"/><ellipse class="cls-12" cx="313.74" cy="152.15" rx="1.51" ry="3.21" transform="translate(54.1 384.89) rotate(-67.75)"/><ellipse class="cls-12" cx="307.04" cy="168.51" rx="1.51" ry="3.21" transform="translate(34.8 388.86) rotate(-67.75)"/><ellipse class="cls-12" cx="309.07" cy="174.82" rx="1.51" ry="3.21" transform="translate(30.22 394.65) rotate(-67.75)"/><ellipse class="cls-12" cx="315.48" cy="171.96" rx="1.51" ry="3.21" transform="translate(36.85 398.81) rotate(-67.75)"/><ellipse class="cls-12" cx="316.66" cy="147.96" rx="1.51" ry="3.21" transform="translate(59.79 384.99) rotate(-67.75)"/><ellipse class="cls-12" cx="322.89" cy="154.7" rx="1.51" ry="3.21" transform="translate(57.42 394.94) rotate(-67.75)"/><path class="cls-4" d="M81.58,235.4,81,241.31a3.6,3.6,0,0,0,3.26,4h0a3.6,3.6,0,0,0,3.7-2.36l2.44-6.72Z"/></g></g></svg>