<svg xmlns="http://www.w3.org/2000/svg" viewBox="0 0 212.99 243.04"><defs><style>.cls-1{isolation:isolate;}.cls-2{fill:#ffde17;}.cls-3{fill:#f1f2f2;}.cls-4{fill:#f26522;}.cls-5,.cls-7{fill:#231f20;mix-blend-mode:multiply;}.cls-5{opacity:0.1;}.cls-6{fill:#808285;}.cls-7{opacity:0.2;}</style></defs><title>Artboard 22</title><g class="cls-1"><g id="Layer_1" data-name="Layer 1"><path class="cls-2" d="M103.12,134.71c5.52,4,12.77-.18,16.23-5,1.52-2.09,2.53-5.12,4.4-6.77,2.6-2.46,5.52.18,4.57,3.28s-3.43,5.42-5.87,7.17c2.31-1.87,6.29-2.71,8.9-1,3.68,2.35,1,6-1.77,7.55-2.46,1.48-5.17,1.62-8,1.69,2.87.25,6.19.54,7.57,3.52,1.48,3.18-.8,5.57-3.43,7.12a10.67,10.67,0,0,1-5,1.37,16,16,0,0,1-9.7-3.09,21.35,21.35,0,0,1-6.43-6.13c-1.28-2.27-2.65-6.35-1.41-8.82"/><path class="cls-3" d="M65.75,161.94S82,164.07,78.26,133.47s37.63-18,36.44,3.73S89.7,178.79,65.75,161.94Z"/><path class="cls-2" d="M67.59,161.9c4.15-.52,13.66-4.29,10.67-28.43s22-21.43,32.22-8.63a6.64,6.64,0,0,0-1-.49c-2.91-1.14-3.53,1.91-3.61,4.11-.33-1.31-1.68-2.46-2.7-3.26a10,10,0,0,0-8.55-1.83,6.91,6.91,0,0,0-4,3.53c-1.35,3-1,7.08-.62,10.3.62,5,1.55,10.1,1.2,15.22a20.36,20.36,0,0,1-3.11,10,10.56,10.56,0,0,1-5.37,3.61c-3.57,1-7.47-.44-10.73-1.85A30.62,30.62,0,0,1,67.59,161.9Z"/><path class="cls-2" d="M68.3,162.49a9.67,9.67,0,0,1,1.14-3,14.39,14.39,0,0,0,1.28-3.17,3.25,3.25,0,0,0-.35-2.82c-.7-.81-1.4.12-1.66.8a8.73,8.73,0,0,0-.5,2.93c0,1,.08,2,.07,3a8.57,8.57,0,0,0-.8-3.14c-.18-.45-.55-1.35-1.14-1.4-1.18-.1-.38,2.27-.23,2.72.36,1.07.69,2.15,1,3.23a15.76,15.76,0,0,1-1.26-1.43c-.35-.38-.7-.94-1.25-1.05a.54.54,0,0,0-.68.59c0,.88.8,1.47,1.46,1.91A16.91,16.91,0,0,0,68,163.21"/><polygon class="cls-4" points="108.69 137.87 101.92 138.31 105.68 144.54 108.69 137.87"/><path class="cls-5" d="M77.37,152.69s8.82-2.32,9.35-14.35l-8.5,10.33A17.67,17.67,0,0,1,77.37,152.69Z"/><path class="cls-2" d="M86.71,137.72c-6.39,2.39-12.26-3.58-14.32-9.1-.91-2.42-1.08-5.61-2.44-7.7-1.85-3.07-5.37-1.3-5.28,1.94,0,3.07,1.86,6.14,3.75,8.47-1.73-2.41-5.34-4.29-8.33-3.3-4.18,1.28-2.57,5.5-.31,7.75,2,2.08,4.55,2.94,7.22,3.75-2.83-.53-6.11-1.13-8.23,1.37-2.28,2.67-.71,5.58,1.41,7.77a10.69,10.69,0,0,0,4.45,2.65,15.94,15.94,0,0,0,10.18-.39,21.34,21.34,0,0,0,7.83-4.2c1.84-1.85,4.58-6.28,4-9"/><ellipse class="cls-6" cx="109.82" cy="132.57" rx="1.13" ry="3.58"/><ellipse class="cls-6" cx="102.75" cy="132.57" rx="1.13" ry="3.58"/><rect x="64.82" y="167.16" width="56.23" height="9.17" rx="4.58" ry="4.58"/><ellipse class="cls-7" cx="107.19" cy="225.54" rx="98.51" ry="4.64"/><path d="M45.24,190.5l-6.51,26.64s68.28,23.61,113.14-1.58l-5.59-24.23S105.28,213.11,45.24,190.5Z"/><ellipse cx="94.79" cy="42.09" rx="6.98" ry="4.47" transform="translate(-3.22 8.16) rotate(-4.85)"/><path d="M95.92,39.7a1.53,1.53,0,0,1-1.28-2.38,17.29,17.29,0,0,0-4.91-24A13.53,13.53,0,0,0,71,17.21a10.53,10.53,0,0,0,3,14.57,8.12,8.12,0,0,0,11.23-2.3,1.53,1.53,0,1,1,2.56,1.69,11.19,11.19,0,0,1-15.48,3.17,13.6,13.6,0,0,1-3.86-18.82,16.59,16.59,0,0,1,23-4.71A20.36,20.36,0,0,1,97.2,39,1.53,1.53,0,0,1,95.92,39.7Z"/><path d="M64.51,201.62C36,54.32,78.28,43.94,80.1,43.57l.61,3-.31-1.5.32,1.5c-.1,0-10.24,2.5-17,22.45C57.44,87.72,53,125.8,67.52,201Z"/><path d="M85.78,204.76C74.63,61.56,90.52,43.84,91.2,43.16l2.2,2.13c-.64.72-15.48,19.16-4.57,159.23Z"/><path d="M112.14,205.41l-3-.33C121.91,86.13,100.67,46.34,100.46,46l2.68-1.49C104,46.08,125.07,85.49,112.14,205.41Z"/><path d="M130.31,200.93a1.53,1.53,0,0,1-1.48-1.95c10-35.33,18.89-85.19,5-122.08-8.27-21.92-20.92-28.92-21-29a1.54,1.54,0,0,1-.63-2.07c.4-.74,2.37.34,3.11.73.55.29,12.58,6.08,21.3,28.92,7.94,20.8,13.56,59.25-4.76,124.32A1.53,1.53,0,0,1,130.31,200.93Z"/><path d="M142.55,200.93a1.53,1.53,0,0,1-1.45-2c.29-.88,29.13-88.72-.1-130.82C131.2,54,115.81,46.48,95.25,45.77,75,45.05,59.75,51.31,50,64.31c-29.8,39.67-.66,130-.36,130.94a1.53,1.53,0,0,1-2.91,1,317.94,317.94,0,0,1-11.25-51.15c-4.94-37.55-.88-65.34,12.08-82.58C57.94,48.62,74,42,95.36,42.71c21.58.75,37.78,8.7,48.16,23.64,12.67,18.25,16.59,46.3,11.66,83.37A305.31,305.31,0,0,1,144,199.88,1.53,1.53,0,0,1,142.55,200.93Z"/><circle class="cls-3" cx="170.55" cy="83.8" r="28.08" transform="translate(-18.65 66.13) rotate(-20.83)"/><path class="cls-3" d="M148.45,92.21c-1.33.5-22.34,20.14-22.34,20.14l27.75-12.58Z"/><path d="M175,98.56a4.24,4.24,0,0,1-1.18,3.18,4.55,4.55,0,0,1-3.32,1.15,4.34,4.34,0,0,1-3.29-1.21,4.83,4.83,0,0,1-.05-6.2,4.56,4.56,0,0,1,3.35-1.1,4.66,4.66,0,0,1,3.37,1.1A4.1,4.1,0,0,1,175,98.56Zm-2.08-10.37a10.23,10.23,0,0,1-.77,3.1,1.76,1.76,0,0,1-1.65,1.18q-1,0-1.65-1.51a23.25,23.25,0,0,1-1-5.29q-.16-1.43-.38-3.43T167,78.13q-.19-2.11-.33-4.14t-.14-3.57a8.06,8.06,0,0,1,.91-4.33,3.94,3.94,0,0,1,6,0,9,9,0,0,1,.82,4.47q0,1.48-.11,3.51t-.3,4.36q-.19,2.33-.44,4.83T172.93,88.19Z"/></g></g></svg>