<svg id="Layer_1" data-name="Layer 1" xmlns="http://www.w3.org/2000/svg" viewBox="0 0 372.95 357.43">
  <defs>
    <style>
      .cls-1{fill:#f36f32;opacity:.2}.cls-1,.cls-14{isolation:isolate}.cls-2{fill:#f7941d}.cls-3{fill:#d3d3d3}.cls-4{fill:#fff}.cls-5{fill:#fdb93d}.cls-6{fill:#e83d32}.cls-16,.cls-7{fill:none;stroke-miterlimit:10}.cls-7{stroke:#27aae1;stroke-width:3px}.cls-8{fill:#181819}.cls-9{fill:#4a494a}.cls-10{fill:#808282}.cls-11{fill:#333}.cls-12{fill:#27aae1}.cls-13{fill:#be1e2d}.cls-14{fill:#383838;opacity:.1}.cls-15{fill:#4d4e4e}.cls-16{stroke:#7b7b7b;stroke-width:2px}
    </style>
  </defs>
  <title>
    Cat Singing Barista
  </title>
  <g id="Layer_1-2" data-name="Layer 1">
    <path class="cls-1" d="M104.31 336.19a31.38 31.38 0 0 1 15.9 4.3l.84.65h141.32a174.38 174.38 0 1 0-159.06-4.81z"/>
    <circle class="cls-2" cx="187.52" cy="186.44" r="120.41"/>
    <path class="cls-3" d="M77.79 245.51v45.76l21.49.24-1.75-47.26-19.74 1.26z"/>
    <path class="cls-4" d="M285.88 211.81a9.08 9.08 0 0 0-2.48-6.87c-2.22-2.31-5.55-3.43-10.2-3.43a21.15 21.15 0 0 0-2.23.08c2.64-3.49 4-6.72 4.2-9.78a10.48 10.48 0 0 0-3.78-8.76 8.89 8.89 0 0 0-5.91-2.25c-2.81 0-11.29 0-26.62 31.17a68.71 68.71 0 0 1-39.41 12.12c-.88 0-1.77 0-2.65-.06l-1.86-.09-1.26-.08-2-.19-1.07-.11-1.47-.19.08-.06.16-.14.72-.55a48.55 48.55 0 0 0 6.63-6.43 5 5 0 0 0 6-.48 63.82 63.82 0 0 0 8.77-10.09 5 5 0 0 0 5.58-1.41 85.12 85.12 0 0 0 14.66-26.46 5.1 5.1 0 0 0 .89-.48c.17-.12 14.52-10.09 8.31-29a5 5 0 0 0 3-6.07c-.19-.63-3.81-12.45-16.09-22a5 5 0 0 0-.55-6.4 45.93 45.93 0 0 0-21.87-11.07l-4.34-12.52 2.5.29a5 5 0 0 0 5.54-4.39 4.92 4.92 0 0 0-.25-2.25c-.56-1.56-2.68-5.23-10.69-8.62 2.25-15.15-4.38-34.56-4.69-35.47a5 5 0 0 0-4.72-3.36h-.43C166 38.36 154.16 47.59 148 55.65l-5.95-16.73a8.24 8.24 0 0 0 1-6.8 6.64 6.64 0 0 0-5-4.22 7.6 7.6 0 0 0-1.78-.21 6.72 6.72 0 0 0-5.06 2.22 8.75 8.75 0 0 0-2 5.09L90.84 49.89a10.08 10.08 0 0 0-5.11-1.59 6.92 6.92 0 0 0-6.56 4.7 6.58 6.58 0 0 0 .65 6.24 7.43 7.43 0 0 0 5.25 3l8.3 15.5a4.49 4.49 0 0 0 .37.59 100.34 100.34 0 0 0-29.91-4.9c-11.1 0-21.07 2.27-29.66 6.75a5 5 0 0 0-2.69 4.48c0 1.67.88 16.77 24.91 47.4-5.46 6.15-16.31 20-17.83 34.05a5 5 0 0 0 3.56 5.33l.48.12c-1.84 10.3-1.25 21.61 5.86 30.73a5 5 0 0 0 3.95 1.93h.27c3.5 10.4 9.3 21.92 18.8 28.67a5 5 0 0 0 7-1.18 4.84 4.84 0 0 0 .6-1.12 62.47 62.47 0 0 0 13.41 7.06 73.35 73.35 0 0 1-13.39 1.27 67.44 67.44 0 0 1-29.41-6.65c-12.53-17.71-22.53-26.69-29.73-26.69a9 9 0 0 0-7 3.27 10.48 10.48 0 0 0-2.34 9.25c.71 3.23 2.94 6.29 5.73 9-5.49.49-9.14 2-11.34 4.7a9.16 9.16 0 0 0-1.8 7.75c.55 2.75 3 9.14 13.78 9.14 1 0 2-.05 3-.14a12.91 12.91 0 0 0-1.7 6 8.3 8.3 0 0 0 3.14 6.45 8.57 8.57 0 0 0 5.42 1.9c4 0 8-2.8 11.24-6.13 2.83 6.57 7.35 7.25 9.06 7.25a9 9 0 0 0 2.52-.37 9.11 9.11 0 0 0 6.11-5.51 10.39 10.39 0 0 0 .65-3.26 86.33 86.33 0 0 0 22.67 3 96.89 96.89 0 0 0 49.73-14.15l-.34 12-7.7 77.51a5 5 0 0 0 4.49 5.47h56.01a5 5 0 0 0 5-5 5.65 5.65 0 0 0 0-.71L175 254.83l-2.15-15.48h.15l.35.09c1.12.31 2.25.61 3.38.88l.37.08c1.12.26 2.24.51 3.36.74l.44.08q1.65.33 3.3.6l.58.08c1.06.16 2.12.32 3.19.45l.81.08c1 .11 2 .22 3 .3l1.5.09c.77.05 1.54.11 2.31.14h.21c1.24 0 2.49.08 3.73.08a88.81 88.81 0 0 0 36.29-7.7 10.27 10.27 0 0 0 1.16 3.13 9.14 9.14 0 0 0 6.91 4.47 9.39 9.39 0 0 0 1.19.08 8.38 8.38 0 0 0 6.25-2.8 13.48 13.48 0 0 0 2.86-6c3.3 2.44 7.1 4.46 10.62 4.46a8.64 8.64 0 0 0 6.55-2.85 8.32 8.32 0 0 0 2.1-7 13.05 13.05 0 0 0-2.62-5.61c12.63-.78 14.88-7.37 15.04-11.41zM143.49 63.21l-.28.64c-1.36.32-2.75.68-4.16 1.06z"/>
    <path class="cls-5" d="M134.64 214.71l-2.52 89.74 44.81.93-12.57-90.67h-29.72z"/>
    <path class="cls-6" d="M280.89 211.61c.43-10.78-26.93-1.11-26.93-1.11s23.15-15.88 14.17-23.67c-7.45-6.47-20.93 19.46-25.32 28.5-27.6 19.87-65.57 18.12-96.85-4.5l-5.26 7.28c18.38 13.29 38.93 20 58.78 20a82.72 82.72 0 0 0 42.37-11.47c-1.7 4.07-2.63 10.72 2.64 11.41 6.76.88 5.24-14.6 5.24-14.6s12.94 14.55 17.89 9.11-12-15.37-12-15.37 24.84 5.2 25.27-5.58z"/>
    <path class="cls-5" d="M197 230.51l.16-1.45c-17.28-.51-35.1-6.62-51.15-18.23l-5.26 7.28c17.23 12.46 36.37 19.13 55 19.92a29.51 29.51 0 0 1 1.25-7.52z"/>
    <path class="cls-6" d="M147.57 222.77l-6.34-6.35c-27.31 27.28-64.53 35-94.92 19.75-5.76-8.23-23.17-31.7-29.5-24.13-7.64 9.12 17.73 21.14 17.73 21.14S6 227.94 8.12 238.52 34 240 34 240s-15.2 12.49-9.45 17.08 16.22-11.82 16.22-11.82.94 15.53 7.48 13.59c5.09-1.51 3.12-7.92.8-11.68a81.71 81.71 0 0 0 30 5.71c24.19.01 48.77-10.38 68.52-30.11z"/>
    <path class="cls-5" d="M102.15 249.75c16.27-4.44 32-13.54 45.43-27l-6.34-6.35c-12.45 12.44-27 20.8-41.95 24.79.97 2.81 1.93 5.7 2.86 8.56z"/>
    <path class="cls-7" d="M137.81 263.65l2.89-36 19.88-2.35s6 42.48 6 40.63"/>
    <path class="cls-4" d="M130.55 217.5l-48.98-17.55-14.31-58.13-4.25-18.52-21.24-33.83 10.09-9.25 32.64 4.32 36.38 13.84 41.75-37.44L183.77 42l1.79 48.42 24.2 35.96-3.98 38.64-31.93 42.02-43.3 10.46z"/>
    <path class="cls-6" d="M239.13 143.63s-5.16-17.47-25.51-26c0 0 7.64-1.5 10.13-.34a41.3 41.3 0 0 0-22.08-10.17l-7.92-22.83 10.42 1.22s-1.32-3.71-11.79-7.13c4.33-14.08-3.6-37-3.6-37-31.86 2.75-40 21.11-41.82 26.74a146.37 146.37 0 0 0-27.69 9s5.63-7.38 12.85-9.82a45 45 0 0 0-33.52 18S64 70.23 36.49 84.59c0 0 .16 15.2 26.51 47.71 0 0-17.62 17.35-19.46 34.33 0 0 8.31-16.57 14.34-21 0 0-20.93 33.77-5.47 53.63 0 0-2.47-13.79 1-18.58 0 0 .53 13.16 5.61 23.81l-.73-.3a12.57 12.57 0 0 1 1.88 1.81l.13.18a34.89 34.89 0 0 1 5.73 1c-1.51-4-2.65-8.34-1.87-11.19a119.07 119.07 0 0 0 6.38 12.79c.74.32 1.49.61 2.22 1 4.46 2.3 8.69 4.78 12.87 7.47l6.83.63c11 2.71 18.21 5.22 30.17 6.16 10.93.86 21.7 2 32.56 3.46 5.23.71 8.89-.94 14.59-2 7.78-1.41 12.22-5.13.2 1.84A47.38 47.38 0 0 1 180 223l-.13-.07 2-1a26.53 26.53 0 0 0 5.13-3.23c4.24-3.36 10.29-9.64 14.72-20.32 0 0-.78 11.63-2.28 13.61 0 0 13.31-11.9 14.76-25.15 0 0-.15 11.73-.87 14.12 0 0 14.09-16.39 16.13-35.92 0 0 1 6.71.42 8.09 0 0 16.29-11 1.28-33.3a11.27 11.27 0 0 1 7.97 3.8zM68 117.59C56.34 110.47 48.32 91 48.32 91c13.87-7.45 36.49 3.66 36.49 3.66C74.74 103.36 68 117.59 68 117.59zm87.37 43.58c-13.22 3.71-28-3.18-32.46-19.16s-.25-42.12 13-45.82 30.43 16.41 34.91 32.4-2.27 28.88-15.5 32.59zm27.17-79s-17.86-10.29-24.46-11.77c-2.85-.64 6-15.48 23.58-19.12 0 0 7.64 21.42.83 30.94z"/>
    <path class="cls-6" d="M52.66 181.25s3.34 34.46 21.72 47.53c0 0-6.93-13.73-7.92-20.31 0 0 9.81 26.35 50.46 29.3A48 48 0 0 1 97 224.9s53.89 21.6 89.13-5.55l-75-11.85S75 179 74.22 179s-21.56 2.25-21.56 2.25z"/>
    <path class="cls-4" d="M126.45 199c16.17 5.58 35.15 3.13 56.52-7.31a.91.91 0 0 0-.79-1.63c-22.82 11.15-42.8 13-59.37 5.54C97 184 88.33 153.33 88.24 153a.91.91 0 0 0-1.16-.55.9.9 0 0 0-.59 1c.09.32 9 31.76 35.56 43.74 1.45.7 2.95 1.29 4.4 1.81z"/>
    <path class="cls-4" d="M76.8 157.13s3.08-25.52 19.86-8c0 0-14.39-11.92-19.7 11.94M179.34 149.44c-10.25 5.82 15.66 10.17 15.66 10.17s4.68-8.34 5.37-15.29-10.79-.71-21.03 5.12z"/>
    <ellipse class="cls-6" cx="143.5" cy="143.69" rx="3.74" ry="8.79" transform="rotate(-5.16 143.52 143.674)"/>
    <ellipse class="cls-4" cx="181.26" cy="134.23" rx="3.74" ry="8.79" transform="rotate(-5.16 181.303 134.257)"/>
    <path class="cls-8" d="M249.34 161.33H310a20.64 20.64 0 0 1 20.67 20.61v23.66h-81.33v-44.27z"/>
    <rect class="cls-9" x="191.55" y="177.22" width="36.11" height="16.55" rx="7.03" ry="7.03"/>
    <path class="cls-10" d="M218.71 183.47h32.74v4h-32.74a2 2 0 0 1-2-2 2 2 0 0 1 2-2z"/>
    <path class="cls-11" d="M249.34 161.33h3.76a15.59 15.59 0 0 1 15.6 15.6v28.67h-19.36v-44.27z"/>
    <path class="cls-12" d="M133.48 256.11S154.2 274 170 255.54l11.24 78.25h-55.5z"/>
    <circle class="cls-13" cx="152.64" cy="233.93" r="3.74"/>
    <path class="cls-13" d="M152 232.79s-18.62-15.48-18.91 1.14 18.91 1.79 18.91 1.79zM153.72 232.79s18.62-15.48 18.91 1.14-18.91 1.79-18.91 1.79z"/>
    <path class="cls-12" d="M143.5 57.86l-7-19.65c1.6-2 3.16-4.81.48-5.43-3-.69-3.06 3.14-2.82 5.65l-44 17.08c-2-1.59-5.25-3.65-6.31-.78-.89 2.4 1.8 2.75 4.27 2.61l9.65 18z"/>
    <path class="cls-14" d="M106.5 64.73L99.1 52l-8.94 3.47c-2-1.59-5.25-3.65-6.31-.78-.89 2.4 1.8 2.75 4.27 2.61l9.65 18 13-5a29.63 29.63 0 0 1-4.27-5.57zM135.08 303.3s17.56 11.86 37.27 0c0 0-16.88 15.99-37.27 0z"/>
    <path class="cls-3" d="M254.36 256.57h5.83v11.53h-5.83z"/>
    <path class="cls-4" d="M165.89 292.49l-3-17.31a2.59 2.59 0 0 0-3-2.11l-2.92.5c.32.08.65.15 1 .25a16 16 0 0 1 3.64 1.54l-1.9 4.36a7.84 7.84 0 0 0-5.15-1.9q-3-.18-3.15 2.22a2.16 2.16 0 0 0 .89 1.75 20.09 20.09 0 0 0 4.1 2.29 13.08 13.08 0 0 1 3.45 2.18 7.38 7.38 0 0 1 1 1.16 6.94 6.94 0 0 1 1.17 4.47 6.6 6.6 0 0 1-1.62 4.11l3.31-.56a2.59 2.59 0 0 0 2.19-2.94zM155.22 289.57a15.87 15.87 0 0 0-3.81-2.34 16.46 16.46 0 0 1-2.89-1.77 6.92 6.92 0 0 1-3-6 5.76 5.76 0 0 1 2-4.26l-4.84.84a2.57 2.57 0 0 0-2.11 3l3 17.31a2.57 2.57 0 0 0 3 2.1l2-.34h-.16a20.62 20.62 0 0 1-3.7-1.85l2.31-4.45a9.11 9.11 0 0 0 5.69 2.38c2.25.13 3.4-.6 3.5-2.19a3 3 0 0 0-.99-2.43z"/>
  </g>
  <g id="Layer_2" data-name="Layer 2">
    <path class="cls-11" d="M321.07 205.6h-75.54a6 6 0 0 0-6 6v38.92a6 6 0 0 0 6 6h28.27a6.88 6.88 0 0 1 6.89 6.89V298a6.89 6.89 0 0 1-6.79 7h-40.21a6 6 0 0 0-6 6v16.78a6 6 0 0 0 6 6h87.38z"/>
    <path class="cls-15" d="M225.21 213.94h26.24v36h-26.24z"/>
    <path class="cls-10" d="M225.21 213.94h11.87v36h-11.87z"/>
    <path class="cls-6" d="M11.31 333.79h350.26v12.68H11.31z"/>
    <path class="cls-8" d="M345.52 205.6H270a6 6 0 0 0-6 6v38.92a6 6 0 0 0 6 6h28.27a6.88 6.88 0 0 1 6.89 6.89V298a6.88 6.88 0 0 1-6.89 6.89h-40.13a6 6 0 0 0-6 6v16.78a6 6 0 0 0 6 6h87.38z"/>
    <path class="cls-4" d="M310.15 204.85h-17.61v-9a8.27 8.27 0 0 1 8.27-8.27h1.06a8.27 8.27 0 0 1 8.27 8.27v9z"/>
    <path class="cls-4" d="M311.61 192a5.47 5.47 0 1 1-5.57 5.46 5.48 5.48 0 0 1 5.57-5.46zm0 9.09a3.63 3.63 0 1 0-3.7-3.63 3.63 3.63 0 0 0 3.7 3.63z"/>
    <path class="cls-14" d="M292.55 195.77v9.08h5.12c-.68-3.81-1.47-12.48 4-17.28H301a8.27 8.27 0 0 0-8.4 8.14z"/>
    <path class="cls-4" d="M310.15 188h-17.61v-9a8.27 8.27 0 0 1 8.27-8.27h1.06a8.27 8.27 0 0 1 8.27 8.27v9z"/>
    <path class="cls-4" d="M311.61 175.18a5.47 5.47 0 1 1-5.57 5.46 5.48 5.48 0 0 1 5.57-5.46zm0 9.09a3.63 3.63 0 1 0-3.7-3.63 3.67 3.67 0 0 0 3.7 3.63z"/>
    <path class="cls-14" d="M292.55 178.93V188h5.12c-.68-3.81-1.47-12.48 4-17.28H301a8.27 8.27 0 0 0-8.4 8.14z"/>
    <path class="cls-4" d="M240.2 272.27h33.09v16.93a15.55 15.55 0 0 1-15.55 15.55h-2a15.56 15.56 0 0 1-15.54-15.55v-16.93z"/>
    <path class="cls-4" d="M237.46 296.4a10.27 10.27 0 1 1 10.46-10.27 10.38 10.38 0 0 1-10.46 10.27zm0-17.09a6.82 6.82 0 1 0 7 6.82 6.82 6.82 0 0 0-7-6.82z"/>
    <path class="cls-14" d="M273.28 289.34v-17.07h-9.62c1.27 7.15 2.77 23.46-7.43 32.47h1.36a15.55 15.55 0 0 0 15.69-15.4z"/>
    <rect class="cls-11" x="282.89" y="219.62" width="30.45" height="5.71" rx="2.85" ry="2.85"/>
    <rect class="cls-11" x="282.89" y="229.08" width="30.45" height="5.71" rx="2.85" ry="2.85"/>
    <rect class="cls-11" x="282.89" y="238.54" width="30.45" height="5.71" rx="2.85" ry="2.85"/>
    <path class="cls-16" d="M290.49 187.51h40.56a11.48 11.48 0 0 1 11.5 11.49v6.59H279V199a11.48 11.48 0 0 1 11.49-11.49z"/>
    <path class="cls-8" d="M343.82 255.54h.87A17.33 17.33 0 0 1 362 272.86v60.93h-18.18v-78.25z"/>
    <path class="cls-4" d="M59 241.4v52.99l32.17.28-2.61-54.73L59 241.4z"/>
    <path class="cls-8" d="M235.67 312.14h10.66a1.6 1.6 0 0 1 1.6 1.6 1.6 1.6 0 0 1-1.6 1.59h-10.66a1.6 1.6 0 0 1-1.6-1.59 1.6 1.6 0 0 1 1.6-1.6zM235.67 316.56h10.66a1.6 1.6 0 0 1 1.6 1.59 1.6 1.6 0 0 1-1.6 1.6h-10.66a1.6 1.6 0 0 1-1.6-1.6 1.6 1.6 0 0 1 1.6-1.59zM235.67 321h10.66a1.6 1.6 0 0 1 1.6 1.59 1.6 1.6 0 0 1-1.6 1.6h-10.66a1.6 1.6 0 0 1-1.6-1.6 1.6 1.6 0 0 1 1.6-1.59z"/>
    <circle class="cls-15" cx="231.03" cy="226.64" r="4.03"/>
    <circle class="cls-15" cx="231.03" cy="237.05" r="4.03"/>
  </g>
  <path class="cls-11" d="M306.14 19.61c-24.35 4.56-40.21 29-35.42 54.51.15.82.33 1.63.52 2.43C259.71 83.78 237 99 237 99l39.06-10c9.41 16.88 28.18 26.73 47.41 23.12 24.35-4.57 40.21-29 35.42-54.52s-28.4-42.6-52.75-37.99z"/>
  <path class="cls-4" d="M330.05 54.12c.36-1.9-.16-2.34-1.93-1.73-4.82 1.67-9.69 3.19-14.56 4.69a2.68 2.68 0 0 0-2.19 2.42c-1.05 6.24-2.28 12.45-3.31 18.7-1 6.07-4.42 9.8-10 10.66A9.17 9.17 0 0 1 289 84a7.06 7.06 0 0 1 4.19-10A10 10 0 0 1 304 77.41c.35.42.47 1.34 1.22 1.07.6-.22.61-1 .64-1.6.27-5.18.57-10.35.81-15.53.17-3.61.31-7.23.37-10.84 0-1.32.48-2 1.74-2.23l25.28-3.8c1.61-.24 3.23-.46 4.83-.72 1.19-.19 1.76.23 1.54 1.55 0 .27-.11.53-.15.8-.61 4-.61 4-4.4 4.35a1.53 1.53 0 0 0-1.64 1.54c-1 6.81-2.15 13.59-3.12 20.4-1.11 7.78-8.72 12.47-15 9.16a7.85 7.85 0 0 1-4.28-9.09c.85-3.1 4.26-5.14 8-4.88a9.63 9.63 0 0 1 7.33 3.72c.31.39.51 1.08 1.18.85s.59-.84.63-1.38c.32-5.57.7-11.15 1.07-16.66z"/>
  <!--

           *                  *
               __                *
            ,db'    *     *
           ,d8/       *        *    *
           888
           `db\       *     *
             `o`_                    **
        *               *   *    _      *
              *                 / )
           *    (\__/) *       ( (  *
         ,-.,-.,)    (.,-.,-.,-.) ).,-.,-.
        | @|  ={      }= | @|  / / | @|o |
       _j__j__j_)     `- - -/ /__j__j__j_
       ________(               /___________
        |  | @| \              || o|O | @|
        |o |  |,'\       ,   ,'"|  |  |  |
       vV\|/vV|`-'\  ,- -\   | \Vv\hjwVv\//v
                  _) )    `. \ /
                 (__/       ) )
                           (_/


    - – - – - – - – - – - – - – - – - – - – - – -
    The clues were all there, weren't they? ;-)
    - – - – - – - – - – - – - – - – - – - – - – -

    Well done, Behemoth the Cat! ;-) You passed the
    third level! It's raining quite a lot this
    time of the year, especially on Mondays.

    Do you remember Prince's Manic Monday song? And
    what about purple houses everewhere? Are right,
    it's Purple Rain! Bingo! The correct answer is ☔
    (Umbrella With Rain Drops emoji). Please write it down.

    - – - – - – - – - – - – - – - – - – - – - – -
    Ready for Level 4? Here we go!
    To move to the next level, just follow
    the link below. Once (you think) you
    have an answer, you'll need to confirm it.
    Clue: find Felix the cat first. Good luck!

    Just follow the link below:
    https://cloud.netlifyusercontent.com/assets/344dbf88-fdf9-42bb-adb4-46f01eedd629/00e08593-0032-49a1-bd1c-0bf7a16886c1/what-did-i-put-in-the-box.gif

    Vitaly and the Smashing Team

    (Cat credit: hjw.
    https://user.xmission.com/~emailbox/ascii_cats.htm)
  -->
</svg>
